<?xml version="1.0" encoding="UTF-8"?>
<svg width="320px" height="320px" viewBox="0 0 320 320" version="1.1" xmlns="http://www.w3.org/2000/svg" xmlns:xlink="http://www.w3.org/1999/xlink">
    <!-- Generator: Sketch 48.2 (47327) - http://www.bohemiancoding.com/sketch -->
    <title>logo</title>
    <desc>Created with Sketch.</desc>
    <defs>
        <linearGradient x1="20.1464638%" y1="0%" x2="38.9053301%" y2="78.2780698%" id="linearGradient-1">
            <stop stop-color="#028B9D" offset="0%"></stop>
            <stop stop-color="#03395D" offset="100%"></stop>
        </linearGradient>
        <path d="M313.847032,79.3687823 C313.847032,79.3687823 301.087848,221.228396 152.609097,232.421105 L313.847032,79.3687823" id="path-2"></path>
        <filter x="-4.3%" y="-3.3%" width="108.7%" height="109.1%" filterUnits="objectBoundingBox" id="filter-3">
            <feOffset dx="0" dy="2" in="SourceAlpha" result="shadowOffsetOuter1"></feOffset>
            <feGaussianBlur stdDeviation="2" in="shadowOffsetOuter1" result="shadowBlurOuter1"></feGaussianBlur>
            <feColorMatrix values="0 0 0 0 0   0 0 0 0 0   0 0 0 0 0  0 0 0 0.5 0" type="matrix" in="shadowBlurOuter1"></feColorMatrix>
        </filter>
        <path d="M280.225276,3.156 C280.225276,3.156 286.247859,69.8633701 218.261802,87.0878918 L280.225276,3.156" id="path-4"></path>
        <filter x="-11.3%" y="-6.0%" width="122.5%" height="116.7%" filterUnits="objectBoundingBox" id="filter-5">
            <feOffset dx="0" dy="2" in="SourceAlpha" result="shadowOffsetOuter1"></feOffset>
            <feGaussianBlur stdDeviation="2" in="shadowOffsetOuter1" result="shadowBlurOuter1"></feGaussianBlur>
            <feColorMatrix values="0 0 0 0 0   0 0 0 0 0   0 0 0 0 0  0 0 0 0.5 0" type="matrix" in="shadowBlurOuter1"></feColorMatrix>
        </filter>
        <path d="M194.653073,6.56415467 C194.653073,6.56415467 240.189107,92.5550351 158.308653,152.33786 L194.653073,6.56415467" id="path-6"></path>
        <filter x="-14.3%" y="-3.4%" width="128.6%" height="109.6%" filterUnits="objectBoundingBox" id="filter-7">
            <feOffset dx="0" dy="2" in="SourceAlpha" result="shadowOffsetOuter1"></feOffset>
            <feGaussianBlur stdDeviation="2" in="shadowOffsetOuter1" result="shadowBlurOuter1"></feGaussianBlur>
            <feColorMatrix values="0 0 0 0 0   0 0 0 0 0   0 0 0 0 0  0 0 0 0.5 0" type="matrix" in="shadowBlurOuter1"></feColorMatrix>
        </filter>
        <path d="M185.455586,279.195553 L47.8540684,233.980029 C47.8540684,233.980029 97.0264743,315.117939 185.455586,279.195553" id="path-8"></path>
        <filter x="-5.1%" y="-9.2%" width="110.2%" height="125.7%" filterUnits="objectBoundingBox" id="filter-9">
            <feOffset dx="0" dy="2" in="SourceAlpha" result="shadowOffsetOuter1"></feOffset>
            <feGaussianBlur stdDeviation="2" in="shadowOffsetOuter1" result="shadowBlurOuter1"></feGaussianBlur>
            <feColorMatrix values="0 0 0 0 0   0 0 0 0 0   0 0 0 0 0  0 0 0 0.5 0" type="matrix" in="shadowBlurOuter1"></feColorMatrix>
        </filter>
    </defs>
    <g id="Page-1" stroke="none" stroke-width="1" fill="none" fill-rule="evenodd">
        <g id="logo">
            <path d="M252.91557,162.718385 C251.881041,156.239367 250.364907,149.75951 248.125527,143.347615 C236.226351,109.269424 209.472925,84.7025192 177.682779,74.124822 L182.794172,128.980003 L63.2503358,259.15859 C66.4235611,262.339367 69.7494905,265.3322 73.2574901,268.090103 L195.163206,135.339878 L252.91557,162.718385" id="Fill-1" fill="#F7AD9E"></path>
            <path d="M166.599144,289.461968 C170.867308,288.51386 175.127082,287.382843 179.355812,285.906144 C220.536422,271.527624 247.880529,235.493646 253.31495,195.032927 L166.599144,289.461968" id="Fill-2" fill="#F7AD9E"></path>
            <path d="M105.566998,74.5779001 C54.1166156,92.5432886 24.1496898,144.279781 31.7278417,196.267145 L149.045721,68.5125259 C134.709153,67.6617458 119.973206,69.5478934 105.566998,74.5779001" id="Fill-3" fill="#F7AD9E"></path>
            <path d="M174.569964,40.7178583 L149.045721,68.5125259 C158.871644,69.0956543 168.472706,71.0606711 177.682779,74.124822 L174.569964,40.7178583" id="Fill-4" fill="#AAB028"></path>
            <path d="M177.682779,74.124822 C168.472706,71.0606711 158.871644,69.0956543 149.045721,68.5125259 L31.7278417,196.267145 C32.7455895,203.246227 34.3859003,210.230343 36.797283,217.136429 C42.5203315,233.526112 51.7564139,247.640336 63.2503358,259.15859 L182.794172,128.980003 L177.682779,74.124822" id="Fill-5" fill="#F5907C"></path>
            <path d="M253.31495,195.032927 L273.867918,172.651704 L252.91557,162.718385 C254.653208,173.596456 254.734595,184.456068 253.31495,195.032927" id="Fill-6" fill="#AAB028"></path>
            <path d="M252.91557,162.718385 L195.163206,135.339878 L73.2574901,268.090103 C99.0032376,288.33179 133.081428,296.909231 166.599144,289.461968 L253.31495,195.032927 C254.734595,184.456068 254.653208,173.596456 252.91557,162.718385" id="Fill-7" fill="#F5907C"></path>
            <path d="M134.502751,317.531 C74.3943807,317.531 21.3414442,271.494063 8.3666279,208.072349 C6.51152451,199.015819 5.57096779,189.702546 5.57096779,180.378365 L18.2856837,180.378365 C18.2856837,188.847571 19.140659,197.305869 20.8212434,205.514135 C32.5954025,263.058419 80.4018616,304.816284 134.502751,304.816284 L134.502751,317.531" id="Fill-8" fill="url(#linearGradient-1)"></path>
            <path d="M153.128459,317.431155 L152.19881,304.753357 C213.407992,300.295571 261.776604,252.693836 267.21522,191.573591 L279.882111,192.700413 C273.884699,260.065586 220.580052,312.527842 153.128459,317.431155" id="Fill-9" fill="url(#linearGradient-1)"></path>
            <path d="M18.7505083,169.510362 L6.08445638,168.417101 C11.9694384,100.25233 67.9514414,46.3855306 136.317581,43.1141384 C138.533469,43.0100982 140.760264,42.953883 142.991255,42.953883 L142.991255,55.6685988 C140.960793,55.6685988 138.931171,55.7206189 136.915812,55.8179468 C74.8927667,58.7839308 24.0817281,107.665192 18.7505083,169.510362" id="Fill-10" fill="url(#linearGradient-1)"></path>
            <path d="M59.4579038,216.212653 C51.7387942,218.907629 44.4987729,222.354379 37.769723,226.422853 C61.6259667,280.958362 123.829404,308.760581 180.962561,288.811717 C188.681671,286.115902 195.921692,282.669152 202.650742,278.601517 C178.795337,224.065169 116.591061,196.26295 59.4579038,216.212653" id="Fill-11" fill="#FFFFFE"></path>
            <g id="Fill-12">
                <use fill="black" fill-opacity="1" filter="url(#filter-3)" xlink:href="#path-2"></use>
                <use fill="#02787C" fill-rule="evenodd" xlink:href="#path-2"></use>
            </g>
            <g id="Fill-13">
                <use fill="black" fill-opacity="1" filter="url(#filter-5)" xlink:href="#path-4"></use>
                <use fill="#F5907C" fill-rule="evenodd" xlink:href="#path-4"></use>
            </g>
            <g id="Fill-14">
                <use fill="black" fill-opacity="1" filter="url(#filter-7)" xlink:href="#path-6"></use>
                <use fill="#02787C" fill-rule="evenodd" xlink:href="#path-6"></use>
            </g>
            <path d="M152.608258,232.421105 L313.847032,79.3687823 C313.847032,79.3687823 168.991229,87.1222922 152.608258,232.421105" id="Fill-15" fill="#00999E"></path>
            <path d="M218.260963,87.0878918 L280.225276,3.156 C280.225276,3.156 213.631175,18.4943741 218.260963,87.0878918" id="Fill-16" fill="#F7AD9E"></path>
            <path d="M47.8540684,233.97919 C47.8540684,233.97919 133.191342,197.040734 185.455586,279.194714 L47.8540684,233.97919" id="Fill-17" fill="#02787C"></path>
            <g id="Fill-18">
                <use fill="black" fill-opacity="1" filter="url(#filter-9)" xlink:href="#path-8"></use>
                <use fill="#00999E" fill-rule="evenodd" xlink:href="#path-8"></use>
            </g>
            <path d="M194.653073,6.56415467 C194.653073,6.56415467 113.589838,63.0713927 158.308653,152.33786 L194.653073,6.56415467" id="Fill-19" fill="#00999E"></path>
            <polyline id="Fill-30" fill="#FFFFFE" points="120.183803 211.191037 95.1000531 211.191037 95.1000531 186.108126 107.641928 179.867393 120.183803 186.108126 120.183803 211.191037"></polyline>
            <polygon id="Fill-31" fill="#FFFFFE" points="117.645726 223.293258 139.923748 223.293258 139.923748 159.853924 117.645726 159.853924"></polygon>
            <polyline id="Fill-32" fill="#FFFFFE" points="87.9389009 217.279904 67.4496992 217.279904 67.4496992 196.790702 77.6943001 191.692734 87.9389009 196.790702 87.9389009 217.279904"></polyline>
        </g>
    </g>
</svg>